<svg xmlns="http://www.w3.org/2000/svg" width="18" height="18" fill="none" viewBox="0 0 18 18"><g clip-path="url(#a)"><path fill="#C55C5C" d="M0 9a9 9 0 1 1 18 0A9 9 0 0 1 0 9"/><path fill="#fff" d="m12.69 10.007-.743-3.452A4.5 4.5 0 0 0 7.545 3a.476.476 0 0 0-.459.35L5.485 9.224a4.57 4.57 0 0 0 .397 3.394l.357.654a3.318 3.318 0 0 0 5.867-.079l.225-.439c.433-.846.56-1.816.36-2.746"/><path fill="#C55C5C" d="M10.032 14.006a1.4 1.4 0 0 1-1.028.426c-.4 0-.752-.142-1.038-.426a1.38 1.38 0 0 1-.438-1.038c0-.4.142-.754.438-1.038a1.4 1.4 0 0 1 1.038-.438c.4 0 .742.142 1.027.438.297.284.438.638.438 1.038 0 .41-.141.752-.437 1.038M7.948 4.222a1.4 1.4 0 0 1 1.056-.448c.428 0 .78.142 1.056.448.265.294.407.666.407 1.114 0 .38-.571 3.206-.77 5.262h-1.38c-.161-2.056-.79-4.884-.79-5.262q.006-.657.42-1.114m10.45 9.612L10.708.416c-.942-1.636-2.474-1.636-3.416 0l-7.69 13.418c-.94 1.636-.172 2.978 1.712 2.978h15.38c1.874 0 2.646-1.342 1.704-2.978"/></g><defs><clipPath id="a"><path fill="#fff" d="M0 9a9 9 0 1 1 18 0A9 9 0 0 1 0 9"/></clipPath></defs></svg>